<svg xmlns="http://www.w3.org/2000/svg" viewBox="0 0 51.74 59.61"><defs><style>.cls-1,.cls-3{fill:#fff;}.cls-2{fill:none;}.cls-2,.cls-3{stroke:#fff;stroke-linecap:round;stroke-miterlimit:10;}</style></defs><title>Asset 2</title><g id="Layer_2" data-name="Layer 2"><g id="Layer_1-2" data-name="Layer 1"><path class="cls-1" d="M56,45"/><line class="cls-2" x1="23.18" y1="32.36" x2="13.68" y2="44.36"/><line class="cls-2" x1="22.8" y1="44.61" x2="13.68" y2="44.36"/><line class="cls-2" x1="13.55" y1="59.11" x2="22.8" y2="44.61"/><line class="cls-2" x1="35.3" y1="41.36" x2="13.55" y2="59.11"/><line class="cls-2" x1="24.43" y1="41.11" x2="35.3" y2="41.36"/><line class="cls-2" x1="30.93" y1="33.11" x2="24.43" y2="41.11"/><line class="cls-2" x1="23.18" y1="32.36" x2="30.93" y2="33.11"/><path class="cls-3" d="M10.44,37.12H9.76v0a9.94,9.94,0,0,1-4-18.71A11.67,11.67,0,0,1,17.44,7.45a11.45,11.45,0,0,1,3.17.44,14.31,14.31,0,0,1,26.83,6.92A14.44,14.44,0,0,1,46.82,19a9.79,9.79,0,0,1-3.69,17.83v.29Z"/></g></g></svg>